<svg width="128" height="20" viewBox="0 0 128 20" fill="none" xmlns="http://www.w3.org/2000/svg">
<mask id="path-1-inside-1_1_762" fill="white">
<path d="M6.2 16.7H8.33C8.97 16.7 9.42 16.57 9.68 16.31C9.96 16.03 10.1 15.57 10.1 14.93V5.78C10.1 5.14 9.96 4.69 9.68 4.43C9.42 4.15 8.97 4.01 8.33 4.01H6.2C5.56 4.01 5.11 4.15 4.85 4.43C4.59 4.69 4.46 5.14 4.46 5.78V14.93C4.46 15.57 4.59 16.03 4.85 16.31C5.11 16.57 5.56 16.7 6.2 16.7ZM8.96 20H5.6C4.02 20 2.8 19.58 1.94 18.74C1.08 17.9 0.65 16.69 0.65 15.11V5.6C0.65 4.02 1.08 2.81 1.94 1.97C2.8 1.13 4.02 0.71 5.6 0.71H8.96C10.54 0.71 11.76 1.13 12.62 1.97C13.48 2.81 13.91 4.02 13.91 5.6V15.11C13.91 16.69 13.48 17.9 12.62 18.74C11.76 19.58 10.54 20 8.96 20ZM20.6227 20H18.1327C17.7127 20 17.5027 19.79 17.5027 19.37V1.34C17.5027 0.919999 17.7127 0.71 18.1327 0.71H20.3827C20.8027 0.71 21.0827 0.85 21.2227 1.13L27.2827 12.5H27.4027V1.34C27.4027 0.919999 27.6127 0.71 28.0327 0.71H30.5227C30.9427 0.71 31.1527 0.919999 31.1527 1.34V19.37C31.1527 19.79 30.9427 20 30.5227 20H28.3327C27.8927 20 27.5727 19.8 27.3727 19.4L21.3727 8.24H21.2527V19.37C21.2527 19.79 21.0427 20 20.6227 20ZM45.5516 20H35.6816C35.2616 20 35.0516 19.79 35.0516 19.37V1.34C35.0516 0.919999 35.2616 0.71 35.6816 0.71H38.2316C38.6516 0.71 38.8616 0.919999 38.8616 1.34V16.34C38.8616 16.56 38.9816 16.67 39.2216 16.67H45.5516C45.9516 16.67 46.1516 16.89 46.1516 17.33V19.37C46.1516 19.79 45.9516 20 45.5516 20ZM55.6081 20H53.0581C52.6381 20 52.4281 19.79 52.4281 19.37V12.95L46.9381 1.37C46.8581 1.19 46.8581 1.04 46.9381 0.919999C47.0381 0.779999 47.1781 0.71 47.3581 0.71H50.5381C50.8581 0.71 51.0981 0.919999 51.2581 1.34L54.2581 8.63H54.4681L57.4081 1.34C57.5481 0.919999 57.7881 0.71 58.1281 0.71H61.3081C61.5081 0.71 61.6481 0.77 61.7281 0.889999C61.8281 1.01 61.8281 1.17 61.7281 1.37L56.2381 12.95V19.37C56.2381 19.79 56.0281 20 55.6081 20ZM78.448 20H75.268C73.688 20 72.468 19.58 71.608 18.74C70.748 17.9 70.318 16.69 70.318 15.11V5.6C70.318 4.02 70.748 2.81 71.608 1.97C72.468 1.13 73.688 0.71 75.268 0.71H78.448C80.008 0.71 81.218 1.14 82.078 2C82.938 2.84 83.368 4.04 83.368 5.6V6.5C83.368 6.94 83.158 7.16 82.738 7.16H80.188C79.768 7.16 79.558 6.94 79.558 6.5V5.78C79.558 5.14 79.428 4.69 79.168 4.43C78.908 4.15 78.458 4.01 77.818 4.01H75.868C75.248 4.01 74.798 4.15 74.518 4.43C74.258 4.69 74.128 5.14 74.128 5.78V14.93C74.128 15.57 74.258 16.03 74.518 16.31C74.798 16.57 75.248 16.7 75.868 16.7H77.818C78.458 16.7 78.908 16.57 79.168 16.31C79.428 16.03 79.558 15.57 79.558 14.93V13.04C79.558 12.82 79.448 12.71 79.228 12.71H77.428C77.008 12.71 76.798 12.5 76.798 12.08V10.04C76.798 9.62 77.008 9.41 77.428 9.41H82.678C83.138 9.41 83.368 9.64 83.368 10.1V15.11C83.368 16.67 82.938 17.88 82.078 18.74C81.218 19.58 80.008 20 78.448 20ZM92.2156 16.7H94.3456C94.9856 16.7 95.4356 16.57 95.6956 16.31C95.9756 16.03 96.1156 15.57 96.1156 14.93V5.78C96.1156 5.14 95.9756 4.69 95.6956 4.43C95.4356 4.15 94.9856 4.01 94.3456 4.01H92.2156C91.5756 4.01 91.1256 4.15 90.8656 4.43C90.6056 4.69 90.4756 5.14 90.4756 5.78V14.93C90.4756 15.57 90.6056 16.03 90.8656 16.31C91.1256 16.57 91.5756 16.7 92.2156 16.7ZM94.9756 20H91.6156C90.0356 20 88.8156 19.58 87.9556 18.74C87.0956 17.9 86.6656 16.69 86.6656 15.11V5.6C86.6656 4.02 87.0956 2.81 87.9556 1.97C88.8156 1.13 90.0356 0.71 91.6156 0.71H94.9756C96.5556 0.71 97.7756 1.13 98.6356 1.97C99.4956 2.81 99.9256 4.02 99.9256 5.6V15.11C99.9256 16.69 99.4956 17.9 98.6356 18.74C97.7756 19.58 96.5556 20 94.9756 20ZM114.018 20H104.148C103.728 20 103.518 19.79 103.518 19.37V1.34C103.518 0.919999 103.728 0.71 104.148 0.71H106.698C107.118 0.71 107.328 0.919999 107.328 1.34V16.34C107.328 16.56 107.448 16.67 107.688 16.67H114.018C114.418 16.67 114.618 16.89 114.618 17.33V19.37C114.618 19.79 114.418 20 114.018 20ZM120.175 20H117.625C117.205 20 116.995 19.79 116.995 19.37V1.34C116.995 0.919999 117.205 0.71 117.625 0.71H127.195C127.595 0.71 127.795 0.919999 127.795 1.34V3.38C127.795 3.8 127.595 4.01 127.195 4.01H121.165C120.925 4.01 120.805 4.12 120.805 4.34V8.99C120.805 9.23 120.925 9.35 121.165 9.35H126.295C126.715 9.35 126.925 9.56 126.925 9.98V11.99C126.925 12.43 126.715 12.65 126.295 12.65H121.165C120.925 12.65 120.805 12.76 120.805 12.98V19.37C120.805 19.79 120.595 20 120.175 20Z"/>
</mask>
<path d="M6.2 16.7H8.33C8.97 16.7 9.42 16.57 9.68 16.31C9.96 16.03 10.1 15.57 10.1 14.93V5.78C10.1 5.14 9.96 4.69 9.68 4.43C9.42 4.15 8.97 4.01 8.33 4.01H6.2C5.56 4.01 5.11 4.15 4.85 4.43C4.59 4.69 4.46 5.14 4.46 5.78V14.93C4.46 15.57 4.59 16.03 4.85 16.31C5.11 16.57 5.56 16.7 6.2 16.7ZM8.96 20H5.6C4.02 20 2.8 19.58 1.94 18.74C1.08 17.9 0.65 16.69 0.65 15.11V5.6C0.65 4.02 1.08 2.81 1.94 1.97C2.8 1.13 4.02 0.71 5.6 0.71H8.96C10.54 0.71 11.76 1.13 12.62 1.97C13.48 2.81 13.91 4.02 13.91 5.6V15.11C13.91 16.69 13.48 17.9 12.62 18.74C11.76 19.58 10.54 20 8.96 20ZM20.6227 20H18.1327C17.7127 20 17.5027 19.79 17.5027 19.37V1.34C17.5027 0.919999 17.7127 0.71 18.1327 0.71H20.3827C20.8027 0.71 21.0827 0.85 21.2227 1.13L27.2827 12.5H27.4027V1.34C27.4027 0.919999 27.6127 0.71 28.0327 0.71H30.5227C30.9427 0.71 31.1527 0.919999 31.1527 1.34V19.37C31.1527 19.79 30.9427 20 30.5227 20H28.3327C27.8927 20 27.5727 19.8 27.3727 19.4L21.3727 8.24H21.2527V19.37C21.2527 19.79 21.0427 20 20.6227 20ZM45.5516 20H35.6816C35.2616 20 35.0516 19.79 35.0516 19.37V1.34C35.0516 0.919999 35.2616 0.71 35.6816 0.71H38.2316C38.6516 0.71 38.8616 0.919999 38.8616 1.34V16.34C38.8616 16.56 38.9816 16.67 39.2216 16.67H45.5516C45.9516 16.67 46.1516 16.89 46.1516 17.33V19.37C46.1516 19.79 45.9516 20 45.5516 20ZM55.6081 20H53.0581C52.6381 20 52.4281 19.79 52.4281 19.37V12.95L46.9381 1.37C46.8581 1.19 46.8581 1.04 46.9381 0.919999C47.0381 0.779999 47.1781 0.71 47.3581 0.71H50.5381C50.8581 0.71 51.0981 0.919999 51.2581 1.34L54.2581 8.63H54.4681L57.4081 1.34C57.5481 0.919999 57.7881 0.71 58.1281 0.71H61.3081C61.5081 0.71 61.6481 0.77 61.7281 0.889999C61.8281 1.01 61.8281 1.17 61.7281 1.37L56.2381 12.95V19.37C56.2381 19.79 56.0281 20 55.6081 20ZM78.448 20H75.268C73.688 20 72.468 19.58 71.608 18.74C70.748 17.9 70.318 16.69 70.318 15.11V5.6C70.318 4.02 70.748 2.81 71.608 1.97C72.468 1.13 73.688 0.71 75.268 0.71H78.448C80.008 0.71 81.218 1.14 82.078 2C82.938 2.84 83.368 4.04 83.368 5.6V6.5C83.368 6.94 83.158 7.16 82.738 7.16H80.188C79.768 7.16 79.558 6.94 79.558 6.5V5.78C79.558 5.14 79.428 4.69 79.168 4.43C78.908 4.15 78.458 4.01 77.818 4.01H75.868C75.248 4.01 74.798 4.15 74.518 4.43C74.258 4.69 74.128 5.14 74.128 5.78V14.93C74.128 15.57 74.258 16.03 74.518 16.31C74.798 16.57 75.248 16.7 75.868 16.7H77.818C78.458 16.7 78.908 16.57 79.168 16.31C79.428 16.03 79.558 15.57 79.558 14.93V13.04C79.558 12.82 79.448 12.71 79.228 12.71H77.428C77.008 12.71 76.798 12.5 76.798 12.08V10.04C76.798 9.62 77.008 9.41 77.428 9.41H82.678C83.138 9.41 83.368 9.64 83.368 10.1V15.11C83.368 16.67 82.938 17.88 82.078 18.74C81.218 19.58 80.008 20 78.448 20ZM92.2156 16.7H94.3456C94.9856 16.7 95.4356 16.57 95.6956 16.31C95.9756 16.03 96.1156 15.57 96.1156 14.93V5.78C96.1156 5.14 95.9756 4.69 95.6956 4.43C95.4356 4.15 94.9856 4.01 94.3456 4.01H92.2156C91.5756 4.01 91.1256 4.15 90.8656 4.43C90.6056 4.69 90.4756 5.14 90.4756 5.78V14.93C90.4756 15.57 90.6056 16.03 90.8656 16.31C91.1256 16.57 91.5756 16.7 92.2156 16.7ZM94.9756 20H91.6156C90.0356 20 88.8156 19.58 87.9556 18.74C87.0956 17.9 86.6656 16.69 86.6656 15.11V5.6C86.6656 4.02 87.0956 2.81 87.9556 1.97C88.8156 1.13 90.0356 0.71 91.6156 0.71H94.9756C96.5556 0.71 97.7756 1.13 98.6356 1.97C99.4956 2.81 99.9256 4.02 99.9256 5.6V15.11C99.9256 16.69 99.4956 17.9 98.6356 18.74C97.7756 19.58 96.5556 20 94.9756 20ZM114.018 20H104.148C103.728 20 103.518 19.79 103.518 19.37V1.34C103.518 0.919999 103.728 0.71 104.148 0.71H106.698C107.118 0.71 107.328 0.919999 107.328 1.34V16.34C107.328 16.56 107.448 16.67 107.688 16.67H114.018C114.418 16.67 114.618 16.89 114.618 17.33V19.37C114.618 19.79 114.418 20 114.018 20ZM120.175 20H117.625C117.205 20 116.995 19.79 116.995 19.37V1.34C116.995 0.919999 117.205 0.71 117.625 0.71H127.195C127.595 0.71 127.795 0.919999 127.795 1.34V3.38C127.795 3.8 127.595 4.01 127.195 4.01H121.165C120.925 4.01 120.805 4.12 120.805 4.34V8.99C120.805 9.23 120.925 9.35 121.165 9.35H126.295C126.715 9.35 126.925 9.56 126.925 9.98V11.99C126.925 12.43 126.715 12.65 126.295 12.65H121.165C120.925 12.65 120.805 12.76 120.805 12.98V19.37C120.805 19.79 120.595 20 120.175 20Z" fill="#222222"/>
<path d="M9.68 16.31L9.46787 16.0979L9.68 16.31ZM9.68 4.43L9.46016 4.63413L9.46772 4.64228L9.47586 4.64984L9.68 4.43ZM4.85 4.43L5.06228 4.64228L5.06984 4.63413L4.85 4.43ZM4.85 16.31L4.63001 16.5143L4.63787 16.5221L4.85 16.31ZM1.94 18.74L2.14962 18.5254L1.94 18.74ZM1.94 1.97L2.14962 2.18461L1.94 1.97ZM12.62 1.97L12.8296 1.75539V1.75539L12.62 1.97ZM12.62 18.74L12.8296 18.9546L12.62 18.74ZM6.2 16.7V17H8.33V16.7V16.4H6.2V16.7ZM8.33 16.7V17C8.99492 17 9.5464 16.8679 9.89213 16.5221L9.68 16.31L9.46787 16.0979C9.2936 16.2721 8.94508 16.4 8.33 16.4V16.7ZM9.68 16.31L9.89213 16.5221C10.2546 16.1596 10.4 15.6026 10.4 14.93H10.1H9.8C9.8 15.5374 9.66537 15.9004 9.46787 16.0979L9.68 16.31ZM10.1 14.93H10.4V5.78H10.1H9.8V14.93H10.1ZM10.1 5.78H10.4C10.4 5.11031 10.2558 4.55532 9.88414 4.21016L9.68 4.43L9.47586 4.64984C9.66416 4.82468 9.8 5.16969 9.8 5.78H10.1ZM9.68 4.43L9.89984 4.22586C9.55468 3.85416 8.99969 3.71 8.33 3.71V4.01V4.31C8.94031 4.31 9.28532 4.44584 9.46016 4.63413L9.68 4.43ZM8.33 4.01V3.71H6.2V4.01V4.31H8.33V4.01ZM6.2 4.01V3.71C5.53031 3.71 4.97532 3.85416 4.63016 4.22586L4.85 4.43L5.06984 4.63413C5.24468 4.44584 5.58969 4.31 6.2 4.31V4.01ZM4.85 4.43L4.63787 4.21787C4.29214 4.5636 4.16 5.11508 4.16 5.78H4.46H4.76C4.76 5.16492 4.88786 4.8164 5.06213 4.64213L4.85 4.43ZM4.46 5.78H4.16V14.93H4.46H4.76V5.78H4.46ZM4.46 14.93H4.16C4.16 15.598 4.29343 16.1515 4.63016 16.5141L4.85 16.31L5.06984 16.1059C4.88657 15.9085 4.76 15.542 4.76 14.93H4.46ZM4.85 16.31L4.63787 16.5221C4.9836 16.8679 5.53508 17 6.2 17V16.7V16.4C5.58492 16.4 5.2364 16.2721 5.06213 16.0979L4.85 16.31ZM8.96 20V19.7H5.6V20V20.3H8.96V20ZM5.6 20V19.7C4.07287 19.7 2.93767 19.2951 2.14962 18.5254L1.94 18.74L1.73038 18.9546C2.66233 19.8649 3.96713 20.3 5.6 20.3V20ZM1.94 18.74L2.14962 18.5254C1.36394 17.758 0.95 16.6357 0.95 15.11H0.65H0.35C0.35 16.7443 0.796059 18.042 1.73038 18.9546L1.94 18.74ZM0.65 15.11H0.95V5.6H0.65H0.35V15.11H0.65ZM0.65 5.6H0.95C0.95 4.07433 1.36394 2.95202 2.14962 2.18461L1.94 1.97L1.73038 1.75539C0.796059 2.66798 0.35 3.96567 0.35 5.6H0.65ZM1.94 1.97L2.14962 2.18461C2.93767 1.41489 4.07287 1.01 5.6 1.01V0.71V0.41C3.96713 0.41 2.66233 0.845107 1.73038 1.75539L1.94 1.97ZM5.6 0.71V1.01H8.96V0.71V0.41H5.6V0.71ZM8.96 0.71V1.01C10.4871 1.01 11.6223 1.41489 12.4104 2.18461L12.62 1.97L12.8296 1.75539C11.8977 0.845107 10.5929 0.41 8.96 0.41V0.71ZM12.62 1.97L12.4104 2.18461C13.1961 2.95202 13.61 4.07433 13.61 5.6H13.91H14.21C14.21 3.96567 13.7639 2.66798 12.8296 1.75539L12.62 1.97ZM13.91 5.6H13.61V15.11H13.91H14.21V5.6H13.91ZM13.91 15.11H13.61C13.61 16.6357 13.1961 17.758 12.4104 18.5254L12.62 18.74L12.8296 18.9546C13.7639 18.042 14.21 16.7443 14.21 15.11H13.91ZM12.62 18.74L12.4104 18.5254C11.6223 19.2951 10.4871 19.7 8.96 19.7V20V20.3C10.5929 20.3 11.8977 19.8649 12.8296 18.9546L12.62 18.74ZM21.2227 1.13L20.9543 1.26421L20.958 1.2711L21.2227 1.13ZM27.2827 12.5L27.018 12.6411L27.1027 12.8H27.2827V12.5ZM27.4027 12.5V12.8H27.7027V12.5H27.4027ZM27.3727 19.4L27.6412 19.2658L27.637 19.2579L27.3727 19.4ZM21.3727 8.24L21.637 8.09794L21.5521 7.94H21.3727V8.24ZM21.2527 8.24V7.94H20.9527V8.24H21.2527ZM20.6227 20V19.7H18.1327V20V20.3H20.6227V20ZM18.1327 20V19.7C17.969 19.7 17.9013 19.6593 17.8724 19.6304C17.8435 19.6015 17.8027 19.5338 17.8027 19.37H17.5027H17.2027C17.2027 19.6262 17.267 19.8735 17.4481 20.0546C17.6292 20.2357 17.8765 20.3 18.1327 20.3V20ZM17.5027 19.37H17.8027V1.34H17.5027H17.2027V19.37H17.5027ZM17.5027 1.34H17.8027C17.8027 1.17624 17.8435 1.10853 17.8724 1.07963C17.9013 1.05074 17.969 1.01 18.1327 1.01V0.71V0.41C17.8765 0.41 17.6292 0.474264 17.4481 0.655367C17.267 0.836472 17.2027 1.08376 17.2027 1.34H17.5027ZM18.1327 0.71V1.01H20.3827V0.71V0.41H18.1327V0.71ZM20.3827 0.71V1.01C20.7344 1.01 20.8827 1.12082 20.9544 1.26416L21.2227 1.13L21.4911 0.995835C21.2827 0.57918 20.8711 0.41 20.3827 0.41V0.71ZM21.2227 1.13L20.958 1.2711L27.018 12.6411L27.2827 12.5L27.5475 12.3589L21.4875 0.988895L21.2227 1.13ZM27.2827 12.5V12.8H27.4027V12.5V12.2H27.2827V12.5ZM27.4027 12.5H27.7027V1.34H27.4027H27.1027V12.5H27.4027ZM27.4027 1.34H27.7027C27.7027 1.17624 27.7435 1.10853 27.7724 1.07963C27.8013 1.05074 27.869 1.01 28.0327 1.01V0.71V0.41C27.7765 0.41 27.5292 0.474264 27.3481 0.655367C27.167 0.836472 27.1027 1.08376 27.1027 1.34H27.4027ZM28.0327 0.71V1.01H30.5227V0.71V0.41H28.0327V0.71ZM30.5227 0.71V1.01C30.6865 1.01 30.7542 1.05074 30.7831 1.07963C30.812 1.10853 30.8527 1.17624 30.8527 1.34H31.1527H31.4527C31.4527 1.08376 31.3885 0.836471 31.2074 0.655367C31.0263 0.474263 30.779 0.41 30.5227 0.41V0.71ZM31.1527 1.34H30.8527V19.37H31.1527H31.4527V1.34H31.1527ZM31.1527 19.37H30.8527C30.8527 19.5338 30.812 19.6015 30.7831 19.6304C30.7542 19.6593 30.6865 19.7 30.5227 19.7V20V20.3C30.779 20.3 31.0263 20.2357 31.2074 20.0546C31.3885 19.8735 31.4527 19.6262 31.4527 19.37H31.1527ZM30.5227 20V19.7H28.3327V20V20.3H30.5227V20ZM28.3327 20V19.7C28.1595 19.7 28.0266 19.6611 27.9217 19.5956C27.8166 19.5299 27.721 19.4257 27.6411 19.2658L27.3727 19.4L27.1044 19.5342C27.2245 19.7743 27.3889 19.9701 27.6037 20.1044C27.8189 20.2389 28.066 20.3 28.3327 20.3V20ZM27.3727 19.4L27.637 19.2579L21.637 8.09794L21.3727 8.24L21.1085 8.38206L27.1085 19.5421L27.3727 19.4ZM21.3727 8.24V7.94H21.2527V8.24V8.54H21.3727V8.24ZM21.2527 8.24H20.9527V19.37H21.2527H21.5527V8.24H21.2527ZM21.2527 19.37H20.9527C20.9527 19.5338 20.912 19.6015 20.8831 19.6304C20.8542 19.6593 20.7865 19.7 20.6227 19.7V20V20.3C20.879 20.3 21.1263 20.2357 21.3074 20.0546C21.4885 19.8735 21.5527 19.6262 21.5527 19.37H21.2527ZM45.5516 20V19.7H35.6816V20V20.3H45.5516V20ZM35.6816 20V19.7C35.5178 19.7 35.4501 19.6593 35.4212 19.6304C35.3923 19.6015 35.3516 19.5338 35.3516 19.37H35.0516H34.7516C34.7516 19.6262 34.8158 19.8735 34.9969 20.0546C35.178 20.2357 35.4253 20.3 35.6816 20.3V20ZM35.0516 19.37H35.3516V1.34H35.0516H34.7516V19.37H35.0516ZM35.0516 1.34H35.3516C35.3516 1.17624 35.3923 1.10853 35.4212 1.07963C35.4501 1.05074 35.5178 1.01 35.6816 1.01V0.71V0.41C35.4253 0.41 35.178 0.474264 34.9969 0.655367C34.8158 0.836472 34.7516 1.08376 34.7516 1.34H35.0516ZM35.6816 0.71V1.01H38.2316V0.71V0.41H35.6816V0.71ZM38.2316 0.71V1.01C38.3953 1.01 38.463 1.05074 38.4919 1.07963C38.5208 1.10853 38.5616 1.17624 38.5616 1.34H38.8616H39.1616C39.1616 1.08376 39.0973 0.836472 38.9162 0.655367C38.7351 0.474264 38.4878 0.41 38.2316 0.41V0.71ZM38.8616 1.34H38.5616V16.34H38.8616H39.1616V1.34H38.8616ZM38.8616 16.34H38.5616C38.5616 16.5033 38.6073 16.6789 38.7488 16.8086C38.8854 16.9339 39.0615 16.97 39.2216 16.97V16.67V16.37C39.1835 16.37 39.1618 16.3655 39.1517 16.3625C39.1428 16.3598 39.1465 16.3593 39.1543 16.3664C39.1579 16.3696 39.1609 16.3733 39.1632 16.3768C39.1654 16.3802 39.1661 16.3822 39.166 16.3819C39.1655 16.3806 39.1616 16.3685 39.1616 16.34H38.8616ZM39.2216 16.67V16.97H45.5516V16.67V16.37H39.2216V16.67ZM45.5516 16.67V16.97C45.6976 16.97 45.7542 17.0088 45.7796 17.0368C45.8099 17.0702 45.8516 17.1495 45.8516 17.33H46.1516H46.4516C46.4516 17.0705 46.3932 16.8198 46.2235 16.6332C46.049 16.4412 45.8056 16.37 45.5516 16.37V16.67ZM46.1516 17.33H45.8516V19.37H46.1516H46.4516V17.33H46.1516ZM46.1516 19.37H45.8516C45.8516 19.5373 45.8115 19.6071 45.7843 19.6356C45.7598 19.6614 45.7015 19.7 45.5516 19.7V20V20.3C45.8016 20.3 46.0434 20.2336 46.2188 20.0494C46.3916 19.8679 46.4516 19.6227 46.4516 19.37H46.1516ZM52.4281 12.95H52.7281V12.8825L52.6992 12.8215L52.4281 12.95ZM46.9381 1.37L46.6639 1.49188L46.667 1.49852L46.9381 1.37ZM46.9381 0.919999L46.6939 0.745536L46.6885 0.753589L46.9381 0.919999ZM51.2581 1.34L50.9777 1.44683L50.9807 1.45417L51.2581 1.34ZM54.2581 8.63L53.9807 8.74417L54.0572 8.93H54.2581V8.63ZM54.4681 8.63V8.93H54.6706L54.7464 8.74221L54.4681 8.63ZM57.4081 1.34L57.6864 1.45221L57.6898 1.44363L57.6927 1.43487L57.4081 1.34ZM61.7281 0.889999L61.4785 1.05641L61.4874 1.06974L61.4977 1.08206L61.7281 0.889999ZM61.7281 1.37L61.4597 1.2358L61.457 1.24148L61.7281 1.37ZM56.2381 12.95L55.967 12.8215L55.9381 12.8825V12.95H56.2381ZM55.6081 20V19.7H53.0581V20V20.3H55.6081V20ZM53.0581 20V19.7C52.8944 19.7 52.8267 19.6593 52.7978 19.6304C52.7689 19.6015 52.7281 19.5338 52.7281 19.37H52.4281H52.1281C52.1281 19.6262 52.1924 19.8735 52.3735 20.0546C52.5546 20.2357 52.8019 20.3 53.0581 20.3V20ZM52.4281 19.37H52.7281V12.95H52.4281H52.1281V19.37H52.4281ZM52.4281 12.95L52.6992 12.8215L47.2092 1.24148L46.9381 1.37L46.667 1.49852L52.157 13.0785L52.4281 12.95ZM46.9381 1.37L47.2123 1.24816C47.1571 1.12399 47.1846 1.09115 47.1877 1.08641L46.9381 0.919999L46.6885 0.753589C46.5317 0.988848 46.5592 1.25601 46.664 1.49184L46.9381 1.37ZM46.9381 0.919999L47.1822 1.09437C47.2229 1.03742 47.2697 1.01 47.3581 1.01V0.71V0.41C47.0865 0.41 46.8533 0.522581 46.694 0.745626L46.9381 0.919999ZM47.3581 0.71V1.01H50.5381V0.71V0.41H47.3581V0.71ZM50.5381 0.71V1.01C50.6257 1.01 50.6955 1.03631 50.7606 1.09327C50.8317 1.15548 50.9085 1.26497 50.9778 1.4468L51.2581 1.34L51.5385 1.2332C51.4477 0.995031 51.3246 0.789517 51.1557 0.641726C50.9808 0.488694 50.7705 0.41 50.5381 0.41V0.71ZM51.2581 1.34L50.9807 1.45417L53.9807 8.74417L54.2581 8.63L54.5356 8.51583L51.5356 1.22583L51.2581 1.34ZM54.2581 8.63V8.93H54.4681V8.63V8.33H54.2581V8.63ZM54.4681 8.63L54.7464 8.74221L57.6864 1.45221L57.4081 1.34L57.1299 1.22779L54.1899 8.51779L54.4681 8.63ZM57.4081 1.34L57.6927 1.43487C57.7521 1.25672 57.8235 1.15209 57.8907 1.09327C57.9522 1.03945 58.0256 1.01 58.1281 1.01V0.71V0.41C57.8907 0.41 57.6741 0.485544 57.4956 0.641726C57.3228 0.792904 57.2041 1.00328 57.1235 1.24513L57.4081 1.34ZM58.1281 0.71V1.01H61.3081V0.71V0.41H58.1281V0.71ZM61.3081 0.71V1.01C61.4502 1.01 61.4741 1.04985 61.4785 1.05641L61.7281 0.889999L61.9777 0.72359C61.8221 0.490153 61.5661 0.41 61.3081 0.41V0.71ZM61.7281 0.889999L61.4977 1.08206C61.5012 1.08636 61.5018 1.08827 61.5019 1.0884C61.5019 1.08863 61.5031 1.09175 61.5031 1.1C61.5031 1.11868 61.4968 1.16192 61.4598 1.23583L61.7281 1.37L61.9965 1.50416C62.1229 1.2512 62.1671 0.948093 61.9586 0.697943L61.7281 0.889999ZM61.7281 1.37L61.457 1.24148L55.967 12.8215L56.2381 12.95L56.5092 13.0785L61.9992 1.49852L61.7281 1.37ZM56.2381 12.95H55.9381V19.37H56.2381H56.5381V12.95H56.2381ZM56.2381 19.37H55.9381C55.9381 19.5338 55.8974 19.6015 55.8685 19.6304C55.8396 19.6593 55.7719 19.7 55.6081 19.7V20V20.3C55.8644 20.3 56.1117 20.2357 56.2928 20.0546C56.4739 19.8735 56.5381 19.6262 56.5381 19.37H56.2381ZM71.608 18.74L71.8176 18.5254L71.608 18.74ZM71.608 1.97L71.8176 2.18461L71.608 1.97ZM82.078 2L81.8658 2.21215L81.8683 2.21461L82.078 2ZM79.168 4.43L78.948 4.63427L78.9558 4.64213L79.168 4.43ZM74.518 4.43L74.3058 4.21787V4.21787L74.518 4.43ZM74.518 16.31L74.2981 16.5141L74.3057 16.5223L74.3138 16.5298L74.518 16.31ZM79.168 16.31L79.3802 16.5223L79.3878 16.5141L79.168 16.31ZM82.078 18.74L82.2876 18.9546L82.2901 18.9521L82.078 18.74ZM78.448 20V19.7H75.268V20V20.3H78.448V20ZM75.268 20V19.7C73.7408 19.7 72.6056 19.2951 71.8176 18.5254L71.608 18.74L71.3983 18.9546C72.3303 19.8649 73.6351 20.3 75.268 20.3V20ZM71.608 18.74L71.8176 18.5254C71.0319 17.758 70.618 16.6357 70.618 15.11H70.318H70.018C70.018 16.7443 70.464 18.042 71.3983 18.9546L71.608 18.74ZM70.318 15.11H70.618V5.6H70.318H70.018V15.11H70.318ZM70.318 5.6H70.618C70.618 4.07433 71.0319 2.95202 71.8176 2.18461L71.608 1.97L71.3983 1.75539C70.464 2.66798 70.018 3.96567 70.018 5.6H70.318ZM71.608 1.97L71.8176 2.18461C72.6056 1.41489 73.7408 1.01 75.268 1.01V0.71V0.41C73.6351 0.41 72.3303 0.845107 71.3983 1.75539L71.608 1.97ZM75.268 0.71V1.01H78.448V0.71V0.41H75.268V0.71ZM78.448 0.71V1.01C79.952 1.01 81.0768 1.4231 81.8658 2.21213L82.078 2L82.2901 1.78787C81.3591 0.856894 80.064 0.41 78.448 0.41V0.71ZM82.078 2L81.8683 2.21461C82.6547 2.98271 83.068 4.09561 83.068 5.6H83.368H83.668C83.668 3.98438 83.2212 2.69729 82.2876 1.78539L82.078 2ZM83.368 5.6H83.068V6.5H83.368H83.668V5.6H83.368ZM83.368 6.5H83.068C83.068 6.67715 83.0255 6.75433 82.9935 6.78786C82.964 6.81877 82.8981 6.86 82.738 6.86V7.16V7.46C82.9979 7.46 83.247 7.39122 83.4275 7.20214C83.6055 7.01567 83.668 6.76285 83.668 6.5H83.368ZM82.738 7.16V6.86H80.188V7.16V7.46H82.738V7.16ZM80.188 7.16V6.86C80.0279 6.86 79.962 6.81877 79.9325 6.78786C79.9005 6.75433 79.858 6.67715 79.858 6.5H79.558H79.258C79.258 6.76285 79.3205 7.01567 79.4985 7.20214C79.6789 7.39122 79.9281 7.46 80.188 7.46V7.16ZM79.558 6.5H79.858V5.78H79.558H79.258V6.5H79.558ZM79.558 5.78H79.858C79.858 5.11508 79.7258 4.5636 79.3801 4.21787L79.168 4.43L78.9558 4.64213C79.1301 4.8164 79.258 5.16492 79.258 5.78H79.558ZM79.168 4.43L79.3878 4.22586C79.0427 3.85416 78.4877 3.71 77.818 3.71V4.01V4.31C78.4283 4.31 78.7733 4.44584 78.9481 4.63413L79.168 4.43ZM77.818 4.01V3.71H75.868V4.01V4.31H77.818V4.01ZM75.868 4.01V3.71C75.2121 3.71 74.6669 3.85682 74.3058 4.21787L74.518 4.43L74.7301 4.64213C74.9291 4.44317 75.2838 4.31 75.868 4.31V4.01ZM74.518 4.43L74.3058 4.21787C73.9601 4.5636 73.828 5.11508 73.828 5.78H74.128H74.428C74.428 5.16492 74.5558 4.8164 74.7301 4.64213L74.518 4.43ZM74.128 5.78H73.828V14.93H74.128H74.428V5.78H74.128ZM74.128 14.93H73.828C73.828 15.598 73.9614 16.1515 74.2981 16.5141L74.518 16.31L74.7378 16.1059C74.5545 15.9085 74.428 15.542 74.428 14.93H74.128ZM74.518 16.31L74.3138 16.5298C74.6751 16.8653 75.2169 17 75.868 17V16.7V16.4C75.2791 16.4 74.9208 16.2747 74.7221 16.0902L74.518 16.31ZM75.868 16.7V17H77.818V16.7V16.4H75.868V16.7ZM77.818 16.7V17C78.4829 17 79.0344 16.8679 79.3801 16.5221L79.168 16.31L78.9558 16.0979C78.7816 16.2721 78.4331 16.4 77.818 16.4V16.7ZM79.168 16.31L79.3878 16.5141C79.7245 16.1515 79.858 15.598 79.858 14.93H79.558H79.258C79.258 15.542 79.1314 15.9085 78.9481 16.1059L79.168 16.31ZM79.558 14.93H79.858V13.04H79.558H79.258V14.93H79.558ZM79.558 13.04H79.858C79.858 12.8838 79.8187 12.7115 79.6876 12.5804C79.5565 12.4493 79.3842 12.41 79.228 12.41V12.71V13.01C79.2589 13.01 79.2737 13.014 79.2775 13.0152C79.2798 13.016 79.2725 13.0138 79.2633 13.0046C79.2542 12.9955 79.252 12.9882 79.2527 12.9905C79.254 12.9943 79.258 13.0091 79.258 13.04H79.558ZM79.228 12.71V12.41H77.428V12.71V13.01H79.228V12.71ZM77.428 12.71V12.41C77.2642 12.41 77.1965 12.3693 77.1676 12.3404C77.1387 12.3115 77.098 12.2438 77.098 12.08H76.798H76.498C76.498 12.3362 76.5622 12.5835 76.7433 12.7646C76.9244 12.9457 77.1717 13.01 77.428 13.01V12.71ZM76.798 12.08H77.098V10.04H76.798H76.498V12.08H76.798ZM76.798 10.04H77.098C77.098 9.87624 77.1387 9.80853 77.1676 9.77963C77.1965 9.75074 77.2642 9.71 77.428 9.71V9.41V9.11C77.1717 9.11 76.9244 9.17426 76.7433 9.35537C76.5622 9.53647 76.498 9.78376 76.498 10.04H76.798ZM77.428 9.41V9.71H82.678V9.41V9.11H77.428V9.41ZM82.678 9.41V9.71C82.8617 9.71 82.9444 9.75574 82.9833 9.79463C83.0222 9.83353 83.068 9.91624 83.068 10.1H83.368H83.668C83.668 9.82376 83.5987 9.56147 83.4076 9.37037C83.2165 9.17926 82.9542 9.11 82.678 9.11V9.41ZM83.368 10.1H83.068V15.11H83.368H83.668V10.1H83.368ZM83.368 15.11H83.068C83.068 16.614 82.6549 17.7388 81.8658 18.5279L82.078 18.74L82.2901 18.9521C83.2211 18.0212 83.668 16.726 83.668 15.11H83.368ZM82.078 18.74L81.8683 18.5254C81.0796 19.2958 79.9539 19.7 78.448 19.7V20V20.3C80.0621 20.3 81.3563 19.8642 82.2876 18.9546L82.078 18.74ZM95.6956 16.31L95.4835 16.0979L95.6956 16.31ZM95.6956 4.43L95.4758 4.63413L95.4833 4.64228L95.4915 4.64984L95.6956 4.43ZM90.8656 4.43L91.0779 4.64228L91.0855 4.63413L90.8656 4.43ZM90.8656 16.31L90.6456 16.5143L90.6535 16.5221L90.8656 16.31ZM87.9556 18.74L88.1652 18.5254L87.9556 18.74ZM87.9556 1.97L88.1652 2.18461L87.9556 1.97ZM98.6356 1.97L98.8452 1.75539V1.75539L98.6356 1.97ZM98.6356 18.74L98.8452 18.9546L98.6356 18.74ZM92.2156 16.7V17H94.3456V16.7V16.4H92.2156V16.7ZM94.3456 16.7V17C95.0105 17 95.562 16.8679 95.9078 16.5221L95.6956 16.31L95.4835 16.0979C95.3092 16.2721 94.9607 16.4 94.3456 16.4V16.7ZM95.6956 16.31L95.9078 16.5221C96.2703 16.1596 96.4156 15.6026 96.4156 14.93H96.1156H95.8156C95.8156 15.5374 95.681 15.9004 95.4835 16.0979L95.6956 16.31ZM96.1156 14.93H96.4156V5.78H96.1156H95.8156V14.93H96.1156ZM96.1156 5.78H96.4156C96.4156 5.11031 96.2715 4.55532 95.8998 4.21016L95.6956 4.43L95.4915 4.64984C95.6798 4.82468 95.8156 5.16969 95.8156 5.78H96.1156ZM95.6956 4.43L95.9155 4.22586C95.5703 3.85416 95.0153 3.71 94.3456 3.71V4.01V4.31C94.9559 4.31 95.3009 4.44584 95.4758 4.63413L95.6956 4.43ZM94.3456 4.01V3.71H92.2156V4.01V4.31H94.3456V4.01ZM92.2156 4.01V3.71C91.5459 3.71 90.9909 3.85416 90.6458 4.22586L90.8656 4.43L91.0855 4.63413C91.2603 4.44584 91.6053 4.31 92.2156 4.31V4.01ZM90.8656 4.43L90.6535 4.21787C90.3078 4.5636 90.1756 5.11508 90.1756 5.78H90.4756H90.7756C90.7756 5.16492 90.9035 4.8164 91.0778 4.64213L90.8656 4.43ZM90.4756 5.78H90.1756V14.93H90.4756H90.7756V5.78H90.4756ZM90.4756 14.93H90.1756C90.1756 15.598 90.3091 16.1515 90.6458 16.5141L90.8656 16.31L91.0855 16.1059C90.9022 15.9085 90.7756 15.542 90.7756 14.93H90.4756ZM90.8656 16.31L90.6535 16.5221C90.9992 16.8679 91.5507 17 92.2156 17V16.7V16.4C91.6005 16.4 91.252 16.2721 91.0778 16.0979L90.8656 16.31ZM94.9756 20V19.7H91.6156V20V20.3H94.9756V20ZM91.6156 20V19.7C90.0885 19.7 88.9533 19.2951 88.1652 18.5254L87.9556 18.74L87.746 18.9546C88.678 19.8649 89.9828 20.3 91.6156 20.3V20ZM87.9556 18.74L88.1652 18.5254C87.3796 17.758 86.9656 16.6357 86.9656 15.11H86.6656H86.3656C86.3656 16.7443 86.8117 18.042 87.746 18.9546L87.9556 18.74ZM86.6656 15.11H86.9656V5.6H86.6656H86.3656V15.11H86.6656ZM86.6656 5.6H86.9656C86.9656 4.07433 87.3796 2.95202 88.1652 2.18461L87.9556 1.97L87.746 1.75539C86.8117 2.66798 86.3656 3.96567 86.3656 5.6H86.6656ZM87.9556 1.97L88.1652 2.18461C88.9533 1.41489 90.0885 1.01 91.6156 1.01V0.71V0.41C89.9828 0.41 88.678 0.845107 87.746 1.75539L87.9556 1.97ZM91.6156 0.71V1.01H94.9756V0.71V0.41H91.6156V0.71ZM94.9756 0.71V1.01C96.5028 1.01 97.638 1.41489 98.426 2.18461L98.6356 1.97L98.8452 1.75539C97.9133 0.845107 96.6085 0.41 94.9756 0.41V0.71ZM98.6356 1.97L98.426 2.18461C99.2117 2.95202 99.6256 4.07433 99.6256 5.6H99.9256H100.226C100.226 3.96567 99.7796 2.66798 98.8452 1.75539L98.6356 1.97ZM99.9256 5.6H99.6256V15.11H99.9256H100.226V5.6H99.9256ZM99.9256 15.11H99.6256C99.6256 16.6357 99.2117 17.758 98.426 18.5254L98.6356 18.74L98.8452 18.9546C99.7796 18.042 100.226 16.7443 100.226 15.11H99.9256ZM98.6356 18.74L98.426 18.5254C97.638 19.2951 96.5028 19.7 94.9756 19.7V20V20.3C96.6085 20.3 97.9133 19.8649 98.8452 18.9546L98.6356 18.74ZM114.018 20V19.7H104.148V20V20.3H114.018V20ZM104.148 20V19.7C103.985 19.7 103.917 19.6593 103.888 19.6304C103.859 19.6015 103.818 19.5338 103.818 19.37H103.518H103.218C103.218 19.6262 103.283 19.8735 103.464 20.0546C103.645 20.2357 103.892 20.3 104.148 20.3V20ZM103.518 19.37H103.818V1.34H103.518H103.218V19.37H103.518ZM103.518 1.34H103.818C103.818 1.17624 103.859 1.10853 103.888 1.07963C103.917 1.05074 103.985 1.01 104.148 1.01V0.71V0.41C103.892 0.41 103.645 0.474264 103.464 0.655367C103.283 0.836472 103.218 1.08376 103.218 1.34H103.518ZM104.148 0.71V1.01H106.698V0.71V0.41H104.148V0.71ZM106.698 0.71V1.01C106.862 1.01 106.93 1.05074 106.959 1.07963C106.988 1.10853 107.028 1.17624 107.028 1.34H107.328H107.628C107.628 1.08376 107.564 0.836472 107.383 0.655367C107.202 0.474264 106.955 0.41 106.698 0.41V0.71ZM107.328 1.34H107.028V16.34H107.328H107.628V1.34H107.328ZM107.328 16.34H107.028C107.028 16.5033 107.074 16.6789 107.216 16.8086C107.352 16.9339 107.528 16.97 107.688 16.97V16.67V16.37C107.65 16.37 107.629 16.3655 107.619 16.3625C107.61 16.3598 107.613 16.3593 107.621 16.3664C107.625 16.3696 107.628 16.3733 107.63 16.3768C107.632 16.3802 107.633 16.3822 107.633 16.3819C107.632 16.3806 107.628 16.3685 107.628 16.34H107.328ZM107.688 16.67V16.97H114.018V16.67V16.37H107.688V16.67ZM114.018 16.67V16.97C114.164 16.97 114.221 17.0088 114.246 17.0368C114.277 17.0702 114.318 17.1495 114.318 17.33H114.618H114.918C114.918 17.0705 114.86 16.8198 114.69 16.6332C114.516 16.4412 114.272 16.37 114.018 16.37V16.67ZM114.618 17.33H114.318V19.37H114.618H114.918V17.33H114.618ZM114.618 19.37H114.318C114.318 19.5373 114.278 19.6071 114.251 19.6356C114.227 19.6614 114.168 19.7 114.018 19.7V20V20.3C114.268 20.3 114.51 20.2336 114.686 20.0494C114.858 19.8679 114.918 19.6227 114.918 19.37H114.618ZM120.175 20V19.7H117.625V20V20.3H120.175V20ZM117.625 20V19.7C117.461 19.7 117.393 19.6593 117.365 19.6304C117.336 19.6015 117.295 19.5338 117.295 19.37H116.995H116.695C116.695 19.6262 116.759 19.8735 116.94 20.0546C117.121 20.2357 117.369 20.3 117.625 20.3V20ZM116.995 19.37H117.295V1.34H116.995H116.695V19.37H116.995ZM116.995 1.34H117.295C117.295 1.17624 117.336 1.10853 117.365 1.07963C117.393 1.05074 117.461 1.01 117.625 1.01V0.71V0.41C117.369 0.41 117.121 0.474264 116.94 0.655367C116.759 0.836472 116.695 1.08376 116.695 1.34H116.995ZM117.625 0.71V1.01H127.195V0.71V0.41H117.625V0.71ZM127.195 0.71V1.01C127.345 1.01 127.403 1.04862 127.428 1.0744C127.455 1.10291 127.495 1.17269 127.495 1.34H127.795H128.095C128.095 1.08731 128.035 0.84209 127.862 0.660603C127.687 0.476378 127.445 0.41 127.195 0.41V0.71ZM127.795 1.34H127.495V3.38H127.795H128.095V1.34H127.795ZM127.795 3.38H127.495C127.495 3.54731 127.455 3.61709 127.428 3.6456C127.403 3.67138 127.345 3.71 127.195 3.71V4.01V4.31C127.445 4.31 127.687 4.24362 127.862 4.05939C128.035 3.87791 128.095 3.63269 128.095 3.38H127.795ZM127.195 4.01V3.71H121.165V4.01V4.31H127.195V4.01ZM121.165 4.01V3.71C121.005 3.71 120.829 3.74613 120.692 3.87135C120.551 4.0011 120.505 4.17672 120.505 4.34H120.805H121.105C121.105 4.31148 121.109 4.29941 121.109 4.29815C121.109 4.29776 121.109 4.29979 121.107 4.3032C121.104 4.3067 121.101 4.31037 121.098 4.31364C121.09 4.32075 121.086 4.32025 121.095 4.31753C121.105 4.31447 121.127 4.31 121.165 4.31V4.01ZM120.805 4.34H120.505V8.99H120.805H121.105V4.34H120.805ZM120.805 8.99H120.505C120.505 9.15624 120.547 9.33603 120.683 9.47213C120.819 9.60824 120.999 9.65 121.165 9.65V9.35V9.05C121.091 9.05 121.091 9.03176 121.107 9.04787C121.123 9.06397 121.105 9.06376 121.105 8.99H120.805ZM121.165 9.35V9.65H126.295V9.35V9.05H121.165V9.35ZM126.295 9.35V9.65C126.459 9.65 126.526 9.69073 126.555 9.71963C126.584 9.74853 126.625 9.81624 126.625 9.98H126.925H127.225C127.225 9.72376 127.161 9.47647 126.98 9.29537C126.798 9.11426 126.551 9.05 126.295 9.05V9.35ZM126.925 9.98H126.625V11.99H126.925H127.225V9.98H126.925ZM126.925 11.99H126.625C126.625 12.1672 126.582 12.2443 126.55 12.2779C126.521 12.3088 126.455 12.35 126.295 12.35V12.65V12.95C126.555 12.95 126.804 12.8812 126.984 12.6921C127.162 12.5057 127.225 12.2528 127.225 11.99H126.925ZM126.295 12.65V12.35H121.165V12.65V12.95H126.295V12.65ZM121.165 12.65V12.35C121.005 12.35 120.829 12.3861 120.692 12.5114C120.551 12.6411 120.505 12.8167 120.505 12.98H120.805H121.105C121.105 12.9515 121.109 12.9394 121.109 12.9381C121.109 12.9378 121.109 12.9398 121.107 12.9432C121.104 12.9467 121.101 12.9504 121.098 12.9536C121.09 12.9607 121.086 12.9602 121.095 12.9575C121.105 12.9545 121.127 12.95 121.165 12.95V12.65ZM120.805 12.98H120.505V19.37H120.805H121.105V12.98H120.805ZM120.805 19.37H120.505C120.505 19.5338 120.464 19.6015 120.435 19.6304C120.406 19.6593 120.339 19.7 120.175 19.7V20V20.3C120.431 20.3 120.678 20.2357 120.86 20.0546C121.041 19.8735 121.105 19.6262 121.105 19.37H120.805Z" fill="#F7F7F7" mask="url(#path-1-inside-1_1_762)"/>
</svg>
