<svg width="37" height="37" viewBox="0 0 37 37" fill="none" xmlns="http://www.w3.org/2000/svg">
<g clip-path="url(#clip0_1_634)">
<path d="M2.00254 2.73024C1.74941 2.87086 1.66504 3.03961 1.66504 3.4193C1.66504 3.78493 1.88301 4.05914 2.23457 4.12946C2.36113 4.15055 3.31738 4.17164 4.36504 4.17164H6.27051L9.68066 16.7084C12.915 28.5912 13.1049 29.2521 13.3088 29.4631L13.5338 29.6951H14.3564C14.9893 29.6951 15.1721 29.7162 15.1439 29.7795C14.5674 31.0873 14.5322 31.9381 15.0244 32.9857C15.2775 33.5271 15.9596 34.2373 16.4869 34.5045C18.7439 35.6506 21.3525 34.0474 21.3525 31.5162C21.3525 30.9537 21.1838 30.2716 20.9588 29.9271C20.9025 29.8427 20.8604 29.7513 20.8604 29.7302C20.8604 29.7091 22.583 29.6951 24.6854 29.6951H28.5174L28.2924 30.1662C28.0744 30.6232 28.0674 30.6795 28.0674 31.5232C28.0674 32.3951 28.0674 32.4091 28.3346 32.9576C28.9744 34.3006 30.4229 35.081 31.8502 34.842C33.9314 34.4904 35.2041 32.3459 34.4869 30.4052C34.4025 30.1873 34.29 29.9412 34.2338 29.8568L34.1354 29.6951H34.9932C35.8439 29.6951 35.851 29.6951 36.0549 29.4912C36.2166 29.3224 36.2588 29.224 36.2588 28.9779C36.2518 28.6545 36.1744 28.4998 35.9283 28.3732C35.8158 28.3099 33.0807 28.2888 25.0861 28.2888C14.9682 28.2888 14.3986 28.2818 14.3635 28.1623C14.3424 28.099 14.1807 27.5013 14.0049 26.8474C13.8291 26.1865 13.6674 25.5959 13.6463 25.5256C13.6111 25.4131 14.0541 25.406 22.3158 25.406C30.676 25.406 31.0346 25.399 31.2666 25.2724C31.5057 25.1459 31.5689 25.0123 33.8963 19.1834C35.2041 15.9068 36.2939 13.1084 36.308 12.9607C36.3361 12.7427 36.308 12.6584 36.1322 12.4615L35.9213 12.2224L34.1564 12.2013L32.3986 12.1802L32.3564 11.8498C32.1244 10.1904 31.6111 8.79118 30.7533 7.49039C29.2135 5.16305 26.9705 3.67243 24.2002 3.14508C23.3283 2.97633 21.5424 2.97633 20.6846 3.14508C19.3064 3.41227 18.0408 3.93258 16.8525 4.72008C16.1213 5.19821 14.8416 6.46383 14.3354 7.20914C13.4283 8.54508 12.7393 10.4154 12.6197 11.906L12.5986 12.1521L11.2908 12.1732L9.99004 12.1873L8.73848 7.6029C7.70488 3.77086 7.46582 2.98336 7.31816 2.83571L7.14941 2.65993L4.66738 2.64586C2.5791 2.6318 2.16426 2.64586 2.00254 2.73024ZM23.9049 5.09977C24.5729 5.62711 25.5221 7.27243 25.7471 8.29899L25.7963 8.53102H24.5236H23.251V6.59039V4.64977L23.4479 4.7693C23.5533 4.83961 23.7572 4.98727 23.9049 5.09977ZM21.7041 6.63258V8.53102H20.4385H19.1729L19.215 8.33414C19.3908 7.61696 20.0447 6.28805 20.5088 5.71852C20.8955 5.24039 21.4791 4.73414 21.6549 4.73414C21.683 4.73414 21.7041 5.58493 21.7041 6.63258ZM18.6736 5.59196C18.2518 6.31618 17.865 7.26539 17.626 8.15836L17.5486 8.46071H16.4166H15.2916L15.4111 8.26383C15.8189 7.63102 16.6416 6.75211 17.3518 6.18258C17.633 5.95758 18.8002 5.22633 18.8705 5.22633C18.8846 5.22633 18.7932 5.39508 18.6736 5.59196ZM26.8158 5.71852C27.5049 6.14039 27.9619 6.50602 28.5104 7.08961C28.9393 7.53258 29.5791 8.37633 29.5791 8.48883C29.5791 8.51696 29.0799 8.53102 28.4682 8.53102H27.3572L27.1955 8.01774C26.9424 7.23024 26.5838 6.35133 26.2814 5.80289C26.0283 5.33883 26.0213 5.31071 26.176 5.36696C26.2604 5.40211 26.5486 5.56383 26.8158 5.71852ZM17.1971 10.549C17.1619 10.8162 17.1197 11.2732 17.0986 11.5685L17.0494 12.117H15.5799C14.5674 12.117 14.1104 12.0959 14.1104 12.0396C14.1104 11.8568 14.4057 10.5279 14.4971 10.3099L14.5955 10.0779H15.9244H17.2463L17.1971 10.549ZM21.6338 11.0974V12.117H20.0799H18.533L18.5682 11.8146C18.5893 11.6529 18.6385 11.1959 18.6877 10.7951L18.765 10.0779H20.1994H21.6338V11.0974ZM26.1619 10.2677C26.2393 10.6123 26.3377 11.5052 26.3447 11.8146V12.117H24.7627H23.1807V11.0974V10.0779H24.6502H26.1197L26.1619 10.2677ZM30.451 10.4084C30.5846 10.8232 30.7744 11.7162 30.7744 11.9482V12.117H29.3049H27.8424L27.7932 11.3224C27.7721 10.8935 27.7299 10.4295 27.7088 10.3029L27.6666 10.0779H29.0025H30.3385L30.451 10.4084ZM12.6479 14.156C12.8236 15.7591 13.5127 17.5029 14.4971 18.8107C15.0736 19.5771 16.1846 20.6388 16.9369 21.1381C18.7088 22.3193 20.9658 22.9591 22.9205 22.8466C25.4729 22.699 27.6244 21.7357 29.4033 19.9568C31.0627 18.3045 31.9697 16.4271 32.2861 13.9943L32.3283 13.6638H33.3479C33.9314 13.6638 34.3604 13.692 34.3463 13.7271C34.3393 13.7623 33.4252 16.0545 32.3213 18.8248L30.3174 23.8591H21.7393H13.1611L11.7971 18.8459C11.0447 16.0966 10.4189 13.7974 10.3979 13.7482C10.3768 13.6779 10.6018 13.6638 11.4807 13.6779L12.5986 13.699L12.6479 14.156ZM17.0635 14.0013C17.0635 14.3529 17.183 15.4427 17.2463 15.6466C17.2814 15.7662 17.19 15.7732 15.9455 15.7732H14.6096L14.5041 15.4006C14.3635 14.9084 14.1104 13.8607 14.1104 13.7482C14.1104 13.6849 14.4549 13.6638 15.5869 13.6638H17.0635V14.0013ZM21.7041 14.7185V15.7732H20.2346H18.765L18.6947 15.1896C18.6525 14.8732 18.5963 14.4021 18.5752 14.1349L18.533 13.6638H20.1221H21.7041V14.7185ZM26.3869 14.1701C26.3658 14.4513 26.3096 14.9295 26.2674 15.2248L26.19 15.7732H24.7557H23.3213V14.7185V13.6638H24.8752H26.4361L26.3869 14.1701ZM30.7744 13.8537C30.7674 14.1279 30.5283 15.2107 30.3947 15.5131L30.2893 15.7732H28.9744H27.6596L27.7088 15.4709C27.7299 15.3091 27.7721 14.8381 27.8002 14.4162L27.8424 13.6638H29.3049H30.7744V13.8537ZM17.5838 17.3341C17.8861 18.3396 18.1533 19.0498 18.4768 19.6966L18.8775 20.4912L18.4838 20.2662C17.3025 19.6123 16.0791 18.4802 15.4111 17.4396L15.2916 17.2498H16.4236C17.2744 17.2498 17.5697 17.2709 17.5838 17.3341ZM21.7041 19.1482C21.7041 20.224 21.676 21.0466 21.6408 21.0466C21.5002 21.0466 20.8393 20.4841 20.5299 20.0904C20.0447 19.4857 19.3908 18.1709 19.215 17.4396L19.1729 17.2498H20.4385H21.7041V19.1482ZM25.7822 17.3552C25.7822 17.531 25.3041 18.7263 25.0369 19.2115C24.5799 20.0412 24.0314 20.667 23.4689 20.9974L23.251 21.124V19.1904V17.2498H24.5166C25.6064 17.2498 25.7822 17.2638 25.7822 17.3552ZM29.5791 17.306C29.5791 17.4256 28.6369 18.5998 28.2361 18.9654C27.7088 19.4576 26.9424 20.006 26.3869 20.2873L25.9791 20.4982L26.1197 20.2943C26.4643 19.8021 27.0057 18.5506 27.2236 17.7209L27.3502 17.2498H28.4611C29.0799 17.2498 29.5791 17.2709 29.5791 17.306ZM18.4768 29.8779C19.2643 30.1099 19.883 31.0451 19.7705 31.8326C19.6721 32.4865 19.1166 33.1474 18.4908 33.3584C18.1674 33.4638 17.5205 33.4076 17.1971 33.2529C16.8525 33.0912 16.4658 32.6974 16.29 32.3318C15.8541 31.4318 16.4307 30.1802 17.415 29.8709C17.8369 29.7443 18.0197 29.7443 18.4768 29.8779ZM32.0471 30.0185C33.1369 30.6162 33.3479 32.0365 32.476 32.9154C31.7447 33.6396 30.5213 33.5834 29.8393 32.7888C29.3611 32.2263 29.2486 31.5373 29.5369 30.9256C30.015 29.892 31.0908 29.5052 32.0471 30.0185Z" fill="#4CAF50"/>
</g>
<defs>
<clipPath id="clip0_1_634">
<rect width="36" height="36" fill="white" transform="translate(0.961914 0.796875)"/>
</clipPath>
</defs>
</svg>
