<svg width="37" height="37" viewBox="0 0 37 37" fill="none" xmlns="http://www.w3.org/2000/svg">
<g clip-path="url(#clip0_1_642)">
<path d="M19.9393 0.902065C19.3979 1.03566 18.8283 1.29581 18.2729 1.6755C17.9283 1.90051 17.7244 1.99191 17.5486 1.99191C17.3166 1.99191 17.2322 1.94269 16.4447 1.41535C15.5939 0.845818 14.3072 1.71066 14.4971 2.72316C14.5252 2.84972 14.8064 3.65832 15.1158 4.51613L15.6924 6.07707L15.3689 6.41457C15.1721 6.61847 14.9963 6.88566 14.926 7.08957C14.7713 7.56769 14.7783 8.27785 14.9611 8.66457L15.1018 8.98097L14.9049 9.20597C14.7994 9.33253 14.3986 9.78957 14.0189 10.2325C11.8533 12.7146 10.1518 15.4568 9.15332 18.0372L8.89316 18.7263H8.17598C5.89785 18.7263 3.44395 19.5208 2.69863 20.5122C2.2627 21.0818 2.2627 21.0818 2.2627 22.8747C2.2627 24.4638 2.26973 24.5411 2.42441 24.8575C2.75488 25.5255 3.76035 26.2075 4.92754 26.5661L5.42676 26.7208L5.44785 27.9302L5.46191 29.1396L5.14551 29.2732C4.3791 29.6036 3.65488 30.2083 3.41582 30.7146C3.30332 30.9607 3.28223 31.1857 3.28223 32.6411C3.28223 34.5747 3.29629 34.638 3.99238 35.2778C4.61816 35.8614 5.59551 36.2903 6.9666 36.5997C7.89473 36.8036 10.1307 36.8528 11.2135 36.6982C12.7674 36.4661 14.0611 35.9599 14.7854 35.2989L15.165 34.9544L15.833 35.1724C16.6627 35.4466 17.4432 35.6294 18.4346 35.7911C19.5525 35.9669 22.6041 35.9669 23.7432 35.7841C24.7838 35.6224 25.9299 35.3341 26.7385 35.0247L27.3783 34.7857L27.6103 34.9825C28.6439 35.8403 30.5213 36.206 31.9416 35.8122C33.3408 35.4325 34.4799 34.5114 35.0846 33.281C35.5205 32.4021 35.6471 31.8747 35.6471 30.9607C35.6471 29.7864 35.3307 28.8443 34.6135 27.888C34.4307 27.6489 34.1986 27.3747 34.0861 27.2903L33.8893 27.1216L34.0228 26.3903C34.2057 25.3778 34.2268 23.2263 34.058 22.1013C33.4393 17.9036 31.133 13.4388 27.6174 9.63488C27.301 9.29738 27.0478 9.0091 27.0478 8.99504C27.0478 8.98097 27.1111 8.83332 27.1885 8.66457C27.3572 8.27785 27.3713 7.56066 27.2166 7.10363C27.1533 6.92082 26.9635 6.61847 26.7947 6.42863C26.626 6.23878 26.4853 6.063 26.4853 6.03488C26.4853 6.00675 26.7525 5.26144 27.083 4.3755C27.4135 3.4966 27.6807 2.67394 27.6807 2.54035C27.6736 1.99191 27.2307 1.42941 26.6822 1.28878C26.2533 1.16925 25.9018 1.26066 25.4236 1.61926C25.1143 1.85128 24.9174 1.94972 24.6854 1.97785C24.4041 2.00597 24.3268 1.97785 23.8838 1.68253C22.9135 1.02863 22.1541 0.796597 21.0643 0.803627C20.6635 0.803627 20.1572 0.852848 19.9393 0.902065ZM21.5635 2.06925C22.0908 2.15363 22.7658 2.44894 23.265 2.81457C23.715 3.14503 24.0314 3.2505 24.5518 3.25753C25.1143 3.25753 25.3955 3.17316 25.9228 2.82863C26.1619 2.67394 26.3658 2.55441 26.3799 2.56847C26.3869 2.58253 26.1338 3.28566 25.8174 4.13644L25.2408 5.68332L21.0924 5.70441C17.183 5.71847 16.9369 5.71144 16.8877 5.59894C16.5713 4.79738 15.7979 2.65285 15.8119 2.61066C15.826 2.5755 15.9666 2.64582 16.1354 2.77238C16.5713 3.09582 17.0635 3.25753 17.5768 3.25753C18.1111 3.2505 18.4205 3.14503 18.8775 2.81457C19.3557 2.46301 20.0447 2.1466 20.5088 2.06925C21.0432 1.98488 21.0502 1.98488 21.5635 2.06925ZM25.6416 7.0966C26.0635 7.34972 26.2041 7.98253 25.9158 8.34816C25.5994 8.75597 25.74 8.74191 21.1064 8.74191C16.4096 8.74191 16.4939 8.74894 16.2197 8.30597C15.9525 7.87707 16.1494 7.24425 16.6064 7.05441C16.6838 7.01925 18.7018 6.99113 21.0924 6.99113C25.0018 6.9841 25.4658 6.99816 25.6416 7.0966ZM20.8252 9.98644C23.8416 10.0075 25.3252 9.99347 25.6416 9.93722L26.0986 9.85988L26.4361 10.2325C30.5424 14.7958 32.6939 19.2396 32.926 23.62C32.9682 24.4286 32.8908 25.7364 32.7713 26.2216L32.7291 26.3693L32.1947 26.1935C31.4072 25.9403 30.24 25.8982 29.4525 26.095C27.6103 26.5661 26.2463 27.895 25.7682 29.688C25.6697 30.0747 25.6275 30.4403 25.6346 30.9958C25.6346 31.9028 25.74 32.3739 26.1338 33.2036C26.2885 33.5271 26.408 33.8013 26.401 33.8083C26.3166 33.8857 24.9033 34.2794 24.3057 34.3989C23.1385 34.631 22.4705 34.6872 21.0361 34.6872C19.1377 34.6872 17.64 34.4482 16.0439 33.8997L15.5518 33.7239L15.5307 32.5708L15.5166 31.4177L16.0861 31.1435C16.7471 30.8271 17.4432 30.2224 17.633 29.8005C17.7455 29.5544 17.7666 29.3153 17.7666 27.8739C17.7666 26.3482 17.7525 26.2005 17.6189 25.9263C17.2955 25.2583 16.276 24.5622 15.0807 24.2036L14.5322 24.0349V22.6638C14.5322 21.3771 14.5182 21.2716 14.3635 20.9411C13.9557 20.0622 12.465 19.2325 10.7564 18.9372C10.4752 18.888 10.2432 18.8247 10.2432 18.7966C10.2432 18.7685 10.3697 18.431 10.5314 18.0583C11.6002 15.4919 13.2736 12.9396 15.5518 10.4083C16.0088 9.89503 16.058 9.85988 16.2549 9.9091C16.3744 9.93722 18.4275 9.97238 20.8252 9.98644ZM9.94082 20.0693C11.8322 20.2802 13.2666 20.9411 13.2666 21.6091C13.2666 22.481 11.0236 23.2263 8.39394 23.2263C5.91191 23.2263 3.73223 22.5513 3.52129 21.7146C3.39473 21.2224 4.20332 20.6318 5.46191 20.3083C6.58691 20.013 8.5416 19.9146 9.94082 20.0693ZM5.04004 24.0278C7.52207 24.7802 11.1502 24.5622 12.9572 23.5497L13.2666 23.3739V23.8943C13.2666 24.4005 13.2596 24.4286 13.0205 24.6677C12.3314 25.3497 10.5666 25.7786 8.41504 25.7786C7.12832 25.7786 6.37598 25.6943 5.41269 25.4411C4.64629 25.2372 4.03457 24.9419 3.73926 24.6325C3.55645 24.4357 3.52832 24.3583 3.50723 23.8872L3.4791 23.3599L3.96426 23.5989C4.23145 23.7325 4.7166 23.9294 5.04004 24.0278ZM15.0385 25.4411C15.8963 25.7294 16.501 26.1935 16.501 26.5591C16.501 26.988 15.84 27.4943 14.8908 27.7825C13.2033 28.3099 10.6018 28.3591 8.78769 27.9021C8.04941 27.7122 7.32519 27.3888 7.10019 27.1497L6.94551 26.981L7.59238 27.0372C9.8916 27.2411 12.683 26.5661 13.7729 25.5466C14.1947 25.1528 14.1877 25.1528 15.0385 25.4411ZM31.6955 27.3747C33.0385 27.7825 34.0439 28.8864 34.3322 30.2575C34.7471 32.2193 33.3971 34.2232 31.3721 34.6521C30.7533 34.7786 30.5143 34.7786 29.8955 34.6521C28.5314 34.3638 27.4275 33.3302 27.0197 31.9521C26.8721 31.4528 26.8721 30.4685 27.0197 29.9693C27.3783 28.7388 28.2713 27.8177 29.5088 27.3958C30.1205 27.1849 31.0627 27.1778 31.6955 27.3747ZM8.41504 29.0552C9.54707 29.3646 10.2221 29.4419 11.6494 29.4419C12.6408 29.4419 13.2174 29.4068 13.7236 29.3153C14.5182 29.1747 15.7557 28.788 16.2057 28.5349L16.501 28.3661V28.8513C16.501 29.2943 16.4799 29.3575 16.276 29.5896C15.6502 30.3068 13.8502 30.7568 11.6494 30.7568C9.23066 30.7568 7.24785 30.2013 6.8541 29.4138C6.77676 29.2661 6.72754 29.006 6.72754 28.7669V28.3661L7.31113 28.6403C7.62754 28.788 8.12676 28.9778 8.41504 29.0552ZM6.27754 30.5739C7.35332 31.4528 9.01269 31.931 11.1994 31.9943C12.2611 32.0294 13.5689 31.9521 13.9557 31.8325C14.026 31.8114 13.9627 31.8888 13.8291 32.0083C13.126 32.6341 10.9744 33.056 8.90723 32.9786C7.71191 32.9294 6.86113 32.7888 6.00332 32.5005C4.66738 32.0575 4.21035 31.4388 4.78691 30.8693C4.99785 30.6583 5.67988 30.2575 5.82754 30.2575C5.86269 30.2575 6.05957 30.3982 6.27754 30.5739ZM6.09473 33.7943C7.21269 34.1177 8.00019 34.2161 9.39941 34.2161C11.2064 34.2232 12.6127 33.956 13.7799 33.3935L14.251 33.1685V33.6818C14.251 34.1669 14.2439 34.2021 14.0049 34.4341C13.3158 35.1302 11.551 35.5591 9.39941 35.5521C7.24082 35.5521 5.49004 35.1302 4.80801 34.4482C4.55488 34.195 4.54785 34.1739 4.54785 33.6818V33.1685L5.02598 33.3935C5.28613 33.52 5.76426 33.7028 6.09473 33.7943Z" fill="#2196F3"/>
<path d="M20.7404 15.7031C20.5014 15.8016 20.4381 15.9984 20.4381 16.6734V17.3062L19.9951 17.5172C19.2147 17.8828 18.7928 18.3539 18.5678 19.1203C18.3217 19.9641 18.624 21.0258 19.2639 21.5742C19.4256 21.7148 20.1217 22.1086 20.8108 22.4602C21.8444 22.9945 22.0904 23.1422 22.2311 23.3602C22.4701 23.7258 22.5194 24.0844 22.3787 24.45C22.1678 24.9914 21.6897 25.2797 20.9936 25.2797C20.4873 25.2797 20.2131 25.1391 19.9037 24.7102C19.6295 24.3234 19.5592 24.2812 19.1654 24.2812C18.8561 24.2812 18.61 24.4711 18.61 24.7031C18.61 24.7805 18.6592 24.9562 18.7084 25.0898C18.9475 25.6453 19.4256 26.0883 20.1006 26.3625L20.424 26.4961L20.4522 27.2203C20.4803 28.0641 20.5295 28.1484 21.0709 28.1484C21.6123 28.1484 21.6615 28.0641 21.6897 27.2133L21.7178 26.482L22.0412 26.3625C23.3912 25.8703 24.0451 24.3094 23.4404 23.0016C23.1522 22.3547 22.8287 22.1016 21.4365 21.4055C20.0936 20.7305 19.8686 20.5547 19.735 20.0555C19.3764 18.7336 21.2678 17.932 22.1537 19.0219C22.2592 19.1484 22.3928 19.3102 22.449 19.3734C22.5967 19.5562 23.2576 19.5492 23.4264 19.3594C23.6022 19.1625 23.5248 18.7828 23.2154 18.3328C22.9412 17.932 22.5897 17.6719 22.0694 17.468L21.7389 17.3344L21.7037 16.6312C21.6756 16.1039 21.6404 15.8859 21.5561 15.8086C21.4154 15.668 20.9514 15.6117 20.7404 15.7031Z" fill="#2196F3"/>
<path d="M29.8821 29.0203C29.1297 29.4844 28.4758 29.9625 28.4266 30.0891C28.3282 30.3352 28.3915 30.6164 28.5883 30.8344C28.8415 31.1227 29.179 31.1297 29.5797 30.8625C29.7344 30.7641 29.8751 30.6797 29.8891 30.6797C29.9032 30.6797 29.9313 31.1648 29.9454 31.7625C29.9665 32.7961 29.9735 32.8594 30.1352 33.0281C30.2758 33.1758 30.3743 33.2109 30.6344 33.2109C30.8946 33.2109 30.993 33.1758 31.1337 33.0281C31.2954 32.8594 31.3024 32.7961 31.3235 31.7625C31.3376 31.1648 31.3657 30.6797 31.3797 30.6797C31.3938 30.6797 31.5274 30.757 31.6751 30.8414C32.0196 31.0594 32.2165 31.1086 32.4696 31.0172C32.8352 30.8906 33.004 30.3211 32.779 30.0047C32.6665 29.8359 31.5907 29.0836 31.1477 28.8586C30.6977 28.6336 30.4516 28.6687 29.8821 29.0203Z" fill="#2196F3"/>
</g>
<defs>
<clipPath id="clip0_1_642">
<rect width="36" height="36" fill="white" transform="translate(0.961914 0.796875)"/>
</clipPath>
</defs>
</svg>
