<svg width="24" height="24" viewBox="0 0 24 24" fill="none" xmlns="http://www.w3.org/2000/svg">
<path d="M12 15V14.295C12.0002 13.8536 12.1479 13.4248 12.4197 13.077C12.6915 12.7291 13.0717 12.482 13.5 12.375C13.9283 12.268 14.3085 12.0209 14.5803 11.673C14.8521 11.3252 14.9998 10.8964 15 10.455V9.6975C15 8.07 13.6545 6.75 12.0255 6.75C10.3695 6.75 9 8.0925 9 9.75M21.75 12C21.75 14.5859 20.7228 17.0658 18.8943 18.8943C17.0658 20.7228 14.5859 21.75 12 21.75C9.41414 21.75 6.93419 20.7228 5.10571 18.8943C3.27723 17.0658 2.25 14.5859 2.25 12C2.25 9.41414 3.27723 6.93419 5.10571 5.10571C6.93419 3.27723 9.41414 2.25 12 2.25C14.5859 2.25 17.0658 3.27723 18.8943 5.10571C20.7228 6.93419 21.75 9.41414 21.75 12ZM12 16.875H12.0075V16.8825H12V16.875ZM12.375 16.875C12.375 16.9745 12.3355 17.0698 12.2652 17.1402C12.1948 17.2105 12.0995 17.25 12 17.25C11.9005 17.25 11.8052 17.2105 11.7348 17.1402C11.6645 17.0698 11.625 16.9745 11.625 16.875C11.625 16.7755 11.6645 16.6802 11.7348 16.6098C11.8052 16.5395 11.9005 16.5 12 16.5C12.0995 16.5 12.1948 16.5395 12.2652 16.6098C12.3355 16.6802 12.375 16.7755 12.375 16.875Z" stroke="#222222" stroke-width="1.25"/>
</svg>
