<svg width="37" height="37" viewBox="0 0 37 37" fill="none" xmlns="http://www.w3.org/2000/svg">
<g clip-path="url(#clip0_1_652)">
<path d="M21.2057 0.867187C20.0455 1.06406 18.7166 1.63359 17.7885 2.33672C16.3893 3.39141 15.3838 4.88203 14.9127 6.59766C14.7299 7.24453 14.7158 7.39922 14.7158 8.60156C14.7158 9.80391 14.7299 9.95859 14.9127 10.6055C15.658 13.3266 17.7463 15.4148 20.4814 16.1742C21.1283 16.357 21.2689 16.3711 22.5135 16.3711C23.758 16.3711 23.8986 16.357 24.5525 16.1742C27.2877 15.4148 29.39 13.3125 30.1283 10.5844C30.2971 9.96562 30.3111 9.78281 30.3111 8.60156C30.3111 7.42031 30.2971 7.2375 30.1283 6.61875C29.3268 3.67266 26.9572 1.46484 23.9689 0.895312C23.4135 0.789844 21.7682 0.775781 21.2057 0.867187ZM23.3221 3.04687C25.5791 3.40547 27.3932 5.03672 27.9697 7.23047C28.1736 8.01094 28.1736 9.19219 27.9697 9.97266C27.4916 11.8078 26.0994 13.2984 24.2994 13.9102C21.2408 14.9508 17.8939 13.1297 17.0572 9.96562C16.8533 9.19922 16.8533 8.01094 17.0572 7.2375C17.7955 4.44609 20.5447 2.61094 23.3221 3.04687Z" fill="#FF9800"/>
<path d="M24.7631 5.60651C24.6506 5.65573 23.8561 6.43619 23.0123 7.33619C21.7748 8.64401 21.4514 8.94635 21.3952 8.86901C20.6639 7.88463 20.1577 7.47682 19.6795 7.47682C19.3631 7.47682 18.885 7.7651 18.7373 8.03932C18.6038 8.29948 18.5686 8.77057 18.6741 9.03776C18.7092 9.12916 19.1803 9.72682 19.7288 10.3667C20.4319 11.2034 20.7764 11.562 20.9381 11.6182C21.2405 11.7237 21.6623 11.7167 21.9366 11.5971C22.253 11.4706 26.0569 7.43463 26.2256 7.04088C26.6334 6.14088 25.6842 5.20573 24.7631 5.60651Z" fill="#FF9800"/>
<path d="M3.36011 3.59541C2.99449 3.77822 2.8398 4.03838 2.81167 4.50245C2.77652 4.98057 2.92417 5.28291 3.29683 5.50791C3.5148 5.64151 3.65542 5.64854 5.37808 5.64854C6.39058 5.64854 7.22027 5.6626 7.22027 5.67666C7.22027 5.69073 8.28199 10.1907 9.57574 15.6751C10.8695 21.1595 11.9242 25.6665 11.9171 25.6946C11.9031 25.7228 11.2492 26.2431 10.4546 26.8548C9.66011 27.4595 8.87964 28.0853 8.71089 28.247C7.67027 29.2454 7.80386 31.0806 8.99214 32.0228C9.54761 32.4587 9.82886 32.5079 11.664 32.5079H13.2671L13.1968 32.6767C13.0773 33.0001 13.0421 33.6681 13.1265 34.1251C13.3164 35.1868 13.9703 36.0376 14.9476 36.5087C15.475 36.7548 15.496 36.7618 16.3609 36.7618C17.2257 36.7618 17.2468 36.7548 17.7742 36.5087C18.7515 36.0376 19.4054 35.1868 19.5953 34.1251C19.6796 33.6681 19.6445 33.0001 19.525 32.6767L19.4546 32.5079H22.3445H25.2343L25.1921 32.6626C25.164 32.754 25.1289 33.0634 25.1007 33.3517C24.9882 34.8423 25.8812 36.1712 27.3367 36.6564C27.7164 36.7829 27.9062 36.804 28.525 36.7829C29.2 36.7618 29.3054 36.7337 29.7906 36.5017C30.4585 36.1782 31.0351 35.5946 31.3585 34.9196C31.5695 34.4696 31.5835 34.3993 31.5835 33.6329C31.5835 33.1899 31.5554 32.754 31.5273 32.6626L31.471 32.5079H32.8984C34.1148 32.5079 34.3609 32.4868 34.5648 32.3814C34.9304 32.1985 35.0851 31.9384 35.1132 31.4743C35.1484 30.9962 35.0007 30.6939 34.6281 30.4689C34.396 30.3282 34.2484 30.3282 22.4289 30.3282C10.4828 30.3282 10.4546 30.3282 10.314 30.1876C10.2156 30.0892 10.1875 30.0048 10.2296 29.9415C10.2578 29.8782 11.0242 29.2665 11.9312 28.5704L13.5765 27.3048L23.2164 27.2907L32.8492 27.2696L33.25 27.1079C33.7492 26.904 34.2835 26.4048 34.5367 25.8985C34.8039 25.3712 34.825 24.9423 34.9304 18.8251C35.0218 13.3126 35.0218 13.3056 34.6773 12.7079C34.4523 12.3282 33.939 11.8642 33.5312 11.6814C33.0671 11.4774 32.4062 11.4704 32.132 11.6673C31.3375 12.2509 31.4921 13.3689 32.4132 13.6642C32.5539 13.7064 32.7015 13.7978 32.7367 13.861C32.814 14.0157 32.6171 24.6892 32.5328 24.9001L32.4625 25.0548L23.2726 25.0407L14.0757 25.0196L12.4093 17.8126C11.4882 13.847 10.7359 10.5704 10.7359 10.5282C10.7359 10.479 11.0523 10.5001 11.6921 10.5915C12.5921 10.7181 12.6554 10.7181 12.9578 10.6056C13.4007 10.4368 13.6187 10.0993 13.6187 9.58604C13.6187 9.12198 13.45 8.80557 13.1125 8.62979C12.9859 8.56651 12.2828 8.41885 11.5445 8.30635C10.8132 8.19385 10.1875 8.08135 10.1664 8.05323C10.1382 8.0251 9.89214 7.11807 9.61792 6.04229C9.32964 4.93135 9.05542 3.99619 8.97808 3.89072C8.6898 3.48291 8.58433 3.46885 5.97574 3.46885C3.8523 3.46885 3.57105 3.48291 3.36011 3.59541ZM16.9164 32.7048C17.5703 33.1899 17.5632 33.9423 16.9023 34.4345C16.6281 34.6384 16.0937 34.6384 15.8195 34.4345C15.2078 33.9774 15.1445 33.3024 15.6718 32.8103C16.0234 32.4798 16.5578 32.4376 16.9164 32.7048ZM28.757 32.6064C29.4882 32.9087 29.6429 33.8368 29.0382 34.329C28.6867 34.6243 28.3281 34.6665 27.9273 34.4767C27.1328 34.0899 27.1187 33.0493 27.9132 32.6556C28.2578 32.4798 28.4406 32.4728 28.757 32.6064Z" fill="#FF9800"/>
</g>
<defs>
<clipPath id="clip0_1_652">
<rect width="36" height="36" fill="white" transform="translate(0.961914 0.796875)"/>
</clipPath>
</defs>
</svg>
