<svg width="41" height="37" viewBox="0 0 41 37" fill="none" xmlns="http://www.w3.org/2000/svg">
<path d="M30.4762 0.948635C28.067 1.47565 26.0342 3.05672 24.9264 5.25084L24.4962 6.11129L15.924 6.16507L7.35186 6.21884L6.84635 6.50924C5.74929 7.16533 5.36209 7.98275 5.36209 9.67137V10.7684L4.42636 10.8115C3.30779 10.8652 2.66245 11.1449 1.95259 11.887C1.16744 12.6937 1.01686 13.1777 0.973837 15.0169C0.930815 16.8238 0.984593 16.9744 1.69446 17.0819C2.30752 17.1895 2.46886 17.2755 3.25401 17.9961C4.0069 18.6737 4.68449 19.0609 5.12547 19.0717H5.36209V27.3857C5.36209 35.3125 5.37285 35.7213 5.55569 35.8826C5.73854 36.0547 6.96466 36.0654 20.9791 36.0654C35.5851 36.0654 36.2089 36.0547 36.3703 35.8718C36.5424 35.689 36.5531 34.9469 36.5531 27.375V19.0717H36.8543C37.3598 19.0609 38.0266 18.6845 38.801 17.9531C39.2097 17.5659 39.683 17.2217 39.8551 17.1787C40.9736 16.9313 40.9629 16.9529 40.9629 15.2535C40.9629 13.6186 40.8123 12.9733 40.2745 12.2634C40.0379 11.9515 39.9411 11.7364 39.9949 11.6396C40.0487 11.5536 40.167 11.0803 40.2745 10.5748C40.5112 9.40248 40.4359 7.72462 40.1024 6.64906C39.3603 4.2936 37.5426 2.25005 35.4023 1.37886C34.0148 0.819569 31.9067 0.636723 30.4762 0.948635ZM33.8105 2.45441C35.0258 2.76632 35.9938 3.32561 36.9296 4.27209C38.2955 5.6488 38.9193 7.14382 38.9193 9.00452C38.9193 10.7899 38.2848 12.285 36.9296 13.6509C36.2305 14.3608 35.897 14.6082 35.1549 14.9631C33.9826 15.5116 33.4233 15.6407 32.2079 15.6407C31.014 15.6407 30.2181 15.4363 29.1211 14.8663C26.131 13.3067 24.7651 9.68212 25.9804 6.59529C26.7979 4.54098 28.5725 2.94916 30.6161 2.46516C31.4442 2.26081 33.0253 2.26081 33.8105 2.45441ZM24.0767 8.82168C24.0767 9.46701 24.109 10.1661 24.1412 10.3812L24.2165 10.7899H15.5368H6.86787V9.76817C6.86787 8.59581 7.00769 8.20861 7.54546 7.88595C7.87889 7.68159 8.14777 7.67084 15.9886 7.67084H24.0767V8.82168ZM8.69631 13.9951V15.6945L8.27684 15.8773C8.04022 15.9849 7.5132 16.3828 7.10449 16.7593C5.84609 17.9209 5.4804 17.9316 4.21125 16.8023C3.74876 16.3936 3.16796 15.9741 2.92059 15.8773L2.4581 15.6837V14.8018C2.4581 13.78 2.5549 13.4466 3.02814 12.9518C3.60894 12.3387 3.78103 12.3065 6.36236 12.2957H8.69631V13.9951ZM16.3327 14.0058V15.716L15.9886 15.8558C15.795 15.9311 15.2894 16.3183 14.8807 16.7162C13.6008 17.9101 13.1383 17.9209 11.8584 16.7162C11.3529 16.243 10.8904 15.9096 10.6 15.8128L10.1483 15.6622L10.116 13.9843L10.0838 12.2957H13.2136H16.3327V14.0058ZM24.0767 13.9951V15.6945L23.6895 15.8343C23.4744 15.9096 22.9474 16.3075 22.5172 16.7162C21.2588 17.9101 20.7963 17.9209 19.6239 16.813C18.871 16.0924 18.3225 15.7375 17.9998 15.7375C17.86 15.7375 17.8385 15.5009 17.8385 14.0166V12.2957H20.9576H24.0767V13.9951ZM39.4356 14.6404L39.4786 15.6837L39.0914 15.8235C38.8763 15.8988 38.3278 16.3183 37.8545 16.7485C36.6929 17.8133 36.1982 17.8886 35.3485 17.1465L34.8968 16.7485L35.3808 16.5549C36.5746 16.0817 38.3063 14.6942 38.9731 13.6617C39.2743 13.1992 39.4033 13.4573 39.4356 14.6404ZM27.2281 15.4794C27.9702 16.0386 28.8522 16.5011 29.5405 16.7055C29.7879 16.7808 29.9922 16.8883 29.9922 16.9313C29.9922 17.0497 29.4437 17.4261 29.078 17.5659C28.5833 17.7488 28.1638 17.5874 27.4647 16.9206C26.6903 16.1892 26.2601 15.8881 25.8729 15.7913C25.5825 15.716 25.5825 15.7052 25.5825 14.7802V13.8553L26.0772 14.4146C26.3461 14.7265 26.8624 15.1997 27.2281 15.4794ZM10.1806 17.2863C10.3419 17.3723 10.7183 17.695 11.0087 17.9961C11.7509 18.7705 12.4177 19.0717 13.375 19.0717C14.3645 19.0717 14.7947 18.8673 15.8272 17.8993C16.6231 17.1572 16.6769 17.1357 17.1932 17.1357C17.7202 17.1357 17.7632 17.1572 18.5484 17.8886C19.5486 18.8458 20.0219 19.0717 21.0114 19.0717C21.9794 19.0717 22.4956 18.8351 23.3561 18.0177C24.152 17.254 24.3671 17.1357 24.9049 17.1357C25.3889 17.1357 25.604 17.2755 26.5612 18.1575C27.3787 18.9211 27.9057 19.1255 28.9382 19.0502C29.8202 18.9964 30.2396 18.7813 31.2184 17.8778C32.0035 17.168 32.0681 17.1357 32.5628 17.1357C33.0683 17.1357 33.1329 17.168 33.9718 17.9424C34.4558 18.3833 34.8968 18.749 34.9505 18.749C35.0043 18.749 35.0473 21.9649 35.0473 26.7081V34.6672H20.9576H6.86787V26.7619C6.86787 21.5777 6.90013 18.8566 6.97542 18.8566C7.0292 18.8566 7.43791 18.5232 7.85737 18.1252C8.2876 17.7165 8.73933 17.3293 8.85764 17.2648C9.15879 17.0927 9.83639 17.1034 10.1806 17.2863Z" fill="#2196F3"/>
<path d="M28.1088 5.7144C27.4958 6.0048 27.0225 6.5856 26.8827 7.23093C26.7536 7.83324 26.8504 8.24195 27.1408 8.36026C27.6893 8.56462 28.2701 8.28497 28.2701 7.81173C28.2701 7.69342 28.3669 7.46755 28.496 7.30622C28.6896 7.05884 28.7972 7.02658 29.3565 7.02658C30.0878 7.02658 30.4213 7.25244 30.4213 7.7472C30.4213 8.26346 30.0556 8.68293 28.453 9.97359C26.7536 11.3395 26.5923 11.5762 26.958 12.0709L27.1623 12.3506L29.3242 12.3828C31.3785 12.4043 31.5076 12.3936 31.7119 12.1892C31.9808 11.9203 31.9916 11.5331 31.7227 11.2105C31.5506 10.9954 31.3893 10.9523 30.6471 10.8986L29.7652 10.8448L30.3137 10.4253C31.4 9.59715 31.927 8.70444 31.927 7.67191C31.927 7.09111 31.4538 6.24142 30.9483 5.88649C30.5503 5.6176 30.3997 5.57458 29.5178 5.55307C28.7326 5.5208 28.453 5.55307 28.1088 5.7144Z" fill="#2196F3"/>
<path d="M35.1194 5.64885C34.829 5.87472 32.5703 9.85426 32.5703 10.1447C32.5703 10.7792 32.9037 10.8975 34.6461 10.8975H36.0874L36.1411 11.4353C36.2057 12.0914 36.4531 12.4033 36.9263 12.4033C37.6147 12.4033 37.6254 12.3495 37.6254 8.92929C37.6254 5.87472 37.6254 5.8532 37.3888 5.69187C37.0876 5.47676 35.3883 5.45525 35.1194 5.64885ZM36.1196 8.20866V9.39177H35.356H34.5924L34.9258 8.82173C35.1086 8.52058 35.4205 7.9828 35.6034 7.63862C35.797 7.3052 35.9906 7.02556 36.0336 7.02556C36.0874 7.02556 36.1196 7.55258 36.1196 8.20866Z" fill="#2196F3"/>
<path d="M9.83433 20.6964L9.55469 20.9115V26.4291C9.55469 31.2368 9.5762 31.9574 9.72678 32.1726L9.88811 32.4092H20.848H31.8079L31.9692 32.1726C32.1198 31.9574 32.1413 31.2368 32.1413 26.4291V20.9115L31.8617 20.6964C31.5713 20.4705 31.539 20.4705 20.848 20.4705C10.157 20.4705 10.1247 20.4705 9.83433 20.6964ZM30.6355 26.4936V31.011H20.848H11.0605V26.4936V21.9763H20.848H30.6355V26.4936Z" fill="#2196F3"/>
</svg>
